# xmcd
#
# Track frame offsets:
#	150
#	12566
#	21834
#	34104
#	42696
#	51807
#	61085
#	72614
#	84028
#	94217
#	106361
#	116711
#	128926
#	139351
#	152084
#	168747
#	179861
#	191407
#	201498
#	213557
#	225128
#	257808
#	271391
#	285295
#	299863
#	314168
#	331842
#
# Disc length: 4535 seconds
#
# Revision: 4
# Processed by: cddbd v1.5.2PL0 Copyright (c) Steve Scherf et al.
# Submitted via: EZCDAudioConverter 2.1.7.1
#
DISCID=aa11b51b
DTITLE=The Kinks - The Anthology 1964-1971 2/5
DYEAR=2014
DGENRE=
TTITLE0=See My Friends
TTITLE1=Never Met A Girl Like You Before
TTITLE2=Ray Davies - I Go To Sleep [Demo]
TTITLE3=Ray Davies - A Little Bit Of Sunlight [Demo]
TTITLE4=Ray Davies - Tell Me Now So I'll Know [Alternate Demo]
TTITLE5=Ray Davies - When I See That Girl Of Mine [Demo]
TTITLE6=Ray Davies - There's A New World Just Opening For Me [Demo]
TTITLE7=This Strange Effect [Live At The Aeolian Hall, 1965]
TTITLE8=Hide And Seek [Live At The Aeolian Hall, 1965]
TTITLE9=A Well Respected Man
TTITLE10=Such A Shame
TTITLE11=Don't You Fret
TTITLE12=Till The End Of The Day
TTITLE13=Where Have All The Good Times Gone
TTITLE14=Milk Cow Blues
TTITLE15=I Am Free
TTITLE16=The World Keeps Going Round
TTITLE17=I'm On An Island
TTITLE18=You Can't Win
TTITLE19=Time Will Tell
TTITLE20=Dedicated Follower Of Fashion [Session Excerpt — Takes 1-3]
TTITLE21=Dedicated Follower Of Fashion [Single Version]
TTITLE22=Sittin' On My Sofa
TTITLE23=She's Got Everything [Backing Track — Take 2]
TTITLE24=She's Got Everything [Alternate Mono Mix]
TTITLE25=Mr. Reporter [Version 1]
TTITLE26=Ray Davies - All Night Stand [Demo]
EXTD=
EXTT0=
EXTT1=
EXTT2=
EXTT3=
EXTT4=
EXTT5=
EXTT6=
EXTT7=
EXTT8=
EXTT9=
EXTT10=
EXTT11=
EXTT12=
EXTT13=
EXTT14=
EXTT15=
EXTT16=
EXTT17=
EXTT18=
EXTT19=
EXTT20=
EXTT21=
EXTT22=
EXTT23=
EXTT24=
EXTT25=
EXTT26=
PLAYORDER=
